<?xml version="1.0" standalone="no"?>
<!DOCTYPE svg PUBLIC "-//W3C//DTD SVG 20010904//EN"
 "http://www.w3.org/TR/2001/REC-SVG-20010904/DTD/svg10.dtd">
<svg version="1.0" xmlns="http://www.w3.org/2000/svg"
 width="225.000000pt" height="225.000000pt" viewBox="0 0 225.000000 225.000000"
 preserveAspectRatio="xMidYMid meet">
<metadata>
Created by potrace 1.11, written by Peter Selinger 2001-2013
</metadata>
<g transform="translate(0.000000,225.000000) scale(0.100000,-0.100000)"
fill="#000000" stroke="none">
<path d="M0 1666 l0 -585 48 -4 47 -3 -47 -2 -48 -2 0 -535 0 -535 1125 0
1125 0 0 1125 0 1125 -1125 0 -1125 0 0 -584z m280 -411 l-34 -35 -93 0 c-67
0 -93 3 -94 13 0 6 -2 22 -3 35 -3 22 -2 22 128 22 l130 0 -34 -35z m35 -115
l-150 -150 -51 0 -52 0 147 149 146 150 55 0 55 1 -150 -150z m565 115 l0 -34
-152 -3 -152 -3 1 -45 c0 -25 1 -60 2 -77 l1 -33 145 0 c80 0 145 -2 145 -5 0
-3 -15 -19 -32 -35 l-33 -29 -147 -1 -148 0 0 115 0 116 33 33 32 34 153 1
152 1 0 -35z m414 8 c-1 -16 -2 -31 -3 -35 0 -5 -83 -8 -183 -8 l-182 0 34 35
34 35 151 0 151 0 -2 -27z m412 -8 l36 -36 3 -109 c2 -61 1 -110 -3 -110 -3 0
-19 12 -34 27 -26 25 -28 32 -28 110 l0 83 -117 0 c-125 0 -125 0 -162 43
l-24 27 147 0 147 0 35 -35z m338 -115 l150 -150 -55 0 -54 0 -150 150 -150
150 55 0 55 0 149 -150z m156 115 l0 -35 -98 0 -98 0 -34 35 -34 35 132 0 132
0 0 -35z m-800 -117 l0 -78 118 0 118 0 34 -35 34 -35 -187 0 -187 0 0 147 0
147 35 -34 c34 -33 35 -36 35 -112z m-632 0 l-3 -33 -72 -3 -73 -3 0 36 0 35
76 0 75 0 -3 -32z m372 -58 l0 -90 -35 0 -35 0 0 90 0 90 35 0 35 0 0 -90z
m-670 -55 l0 -35 -127 0 -127 0 34 35 34 35 93 0 93 0 0 -35z m1534 0 l38 -35
-131 0 -131 0 0 35 0 35 93 0 c91 0 92 -1 131 -35z"/>
</g>
</svg>
